<svg height="600" version="1.1" width="600" xmlns="http://www.w3.org/2000/svg"><defs><mask id="maskSk8wx8gnnzl8"><g fill="#ffffff" style=""><circle cx="122.80133304221107" cy="147.7014482876" r="10"></circle></g></mask><mask id="maskSk8wx8gnnzlj"><g fill="#ffffff" style=""><circle cx="234.25841366375533" cy="73.66441893610934" r="10.426091685804987"></circle></g></mask><mask id="maskSk8wx8gnnzlu"><g fill="#ffffff" style=""><circle cx="150.47539194615493" cy="190.64275872069487" r="12.225906141809421"></circle></g></mask><mask id="maskSk8wx8gnnzma"><g fill="#ffffff" style=""><circle cx="59.02229187284607" cy="262.2561221300695" r="12.253976517913458"></circle></g></mask><mask id="maskSk8wx8gnnzml"><g fill="#ffffff" style=""><circle cx="261.679998310373" cy="116.77174339605767" r="12.65095281571337"></circle></g></mask><mask id="maskSk8wx8gnnzn1"><g fill="#ffffff" style=""><circle cx="362.88749896692343" cy="60.40162342567683" r="13.417222531585285"></circle></g></mask><mask id="maskSk8wx8gnnznc"><g fill="#ffffff" style=""><circle cx="113.65407518619239" cy="256.7838408735219" r="13.526440012799233"></circle></g></mask><mask id="maskSk8wx8gnnznn"><g fill="#ffffff" style=""><circle cx="224.59338179213069" cy="182.6223593392541" r="13.933239216518027"></circle></g></mask><mask id="maskSk8wx8gnnzny"><g fill="#ffffff" style=""><circle cx="335.95003232257204" cy="109.12189539262215" r="14.377364909626136"></circle></g></mask><mask id="maskSk8wx8gnnzo9"><g fill="#ffffff" style=""><circle cx="150.68370177088167" cy="315.4046975910475" r="16.543295248027817"></circle></g></mask><mask id="maskSk8wx8gnnzop"><g fill="#ffffff" style=""><circle cx="59.665881846619385" cy="387.34652144062045" r="16.5954845833377"></circle></g></mask><mask id="maskSk8wx8gnnzp0"><g fill="#ffffff" style=""><circle cx="262.2140233228514" cy="241.37096111823053" r="16.96980565580703"></circle></g></mask><mask id="maskSk8wx8gnnzpg"><g fill="#ffffff" style=""><circle cx="373.69400985295295" cy="167.27090460753865" r="17.395443604274885"></circle></g></mask><mask id="maskSk8wx8gnnzpw"><g fill="#ffffff" style=""><circle cx="114.29731774665646" cy="381.5857865664371" r="17.856878491139256"></circle></g></mask><mask id="maskSk8wx8gnnzq7"><g fill="#ffffff" style=""><circle cx="474.9939093308552" cy="111.40719055309148" r="18.18498663725692"></circle></g></mask><mask id="maskSk8wx8gnnzqi"><g fill="#ffffff" style=""><circle cx="225.26962416600327" cy="307.7481639726067" r="18.274631856144207"></circle></g></mask><mask id="maskSk8wx8gnnzqt"><g fill="#ffffff" style=""><circle cx="336.7236663755551" cy="233.69712118151938" r="18.70126505831687"></circle></g></mask><mask id="maskSk8wx8gnnzr4"><g fill="#ffffff" style=""><circle cx="447.80514022186446" cy="160.01202964905286" r="19.132743658128675"></circle></g></mask><mask id="maskSk8wx8gnnzrf"><g fill="#ffffff" style=""><circle cx="151.76071057702916" cy="440.10094887118305" r="20.879510897314542"></circle></g></mask><mask id="maskSk8wx8gnnzrv"><g fill="#ffffff" style=""><circle cx="262.86761648303343" cy="366.45401530415677" r="21.307455553302376"></circle></g></mask><mask id="maskSk8wx8gnnzsb"><g fill="#ffffff" style=""><circle cx="374.3375351740105" cy="292.40124770688396" r="21.734455189385532"></circle></g></mask><mask id="maskSk8wx8gnnzsr"><g fill="#ffffff" style=""><circle cx="124.55782100593393" cy="488.68995538521017" r="21.829662532035215"></circle></g></mask><mask id="maskSk8wx8gnnzsx"><g fill="#ffffff" style=""><circle cx="485.2761363480645" cy="218.51715520370396" r="22.156340311821843"></circle></g></mask><mask id="maskSk8wx8gnnztd"><g fill="#ffffff" style=""><circle cx="225.89344266428725" cy="432.88268697303886" r="22.612705662647144"></circle></g></mask><mask id="maskSk8wx8gnnzto"><g fill="#ffffff" style=""><circle cx="337.4057946601403" cy="358.7924029836882" r="23.03733597593417"></circle></g></mask><mask id="maskSk8wx8gnnztz"><g fill="#ffffff" style=""><circle cx="539.8972247404756" cy="212.73300609239277" r="23.420521736292987"></circle></g></mask><mask id="maskSk8wx8gnnzu5"><g fill="#ffffff" style=""><circle cx="448.91732335827777" cy="284.7115606489578" r="23.4666963883607"></circle></g></mask><mask id="maskSk8wx8gnnzug"><g fill="#ffffff" style=""><circle cx="263.66218236459235" cy="491.05150545939125" r="25.628812474597183"></circle></g></mask><mask id="maskSk8wx8gnnzuw"><g fill="#ffffff" style=""><circle cx="375.0403844923571" cy="417.5414576637226" r="26.07097247574459"></circle></g></mask><mask id="maskSk8wx8gnnzvc"><g fill="#ffffff" style=""><circle cx="485.9608982444631" cy="343.3328702675415" r="26.48062168411071"></circle></g></mask><mask id="maskSk8wx8gnnzvs"><g fill="#ffffff" style=""><circle cx="236.7246583333715" cy="539.7666508660446" r="26.58877641076149"></circle></g></mask><mask id="maskSk8wx8gnnzvy"><g fill="#ffffff" style=""><circle cx="337.945315362062" cy="483.4134523312199" r="27.35100332608994"></circle></g></mask><mask id="maskSk8wx8gnnzw9"><g fill="#ffffff" style=""><circle cx="540.5882387135598" cy="337.8498219721832" r="27.754254337301088"></circle></g></mask><mask id="maskSk8wx8gnnzwf"><g fill="#ffffff" style=""><circle cx="449.16355172506894" cy="409.5102302263026" r="27.778070811336935"></circle></g></mask><mask id="maskSk8wx8gnnzwq"><g fill="#ffffff" style=""><circle cx="365.3801137676891" cy="526.5428247870163" r="29.572000097331404"></circle></g></mask><mask id="maskSk8wx8gnnzww"><g fill="#ffffff" style=""><circle cx="476.86129393523333" cy="452.4621856638711" r="30"></circle></g></mask></defs><rect x="0" y="0" width="600" height="600" rx="5" ry="5" stroke="#000000" fill="#ffffff" style="stroke-width: 1; fill-opacity: 1;"></rect><circle cx="122.80133304221107" cy="147.7014482876" r="10" fill="#808080" style=""></circle><circle cx="120.80133304221107" cy="145.7014482876" r="10" fill="#ffffff" mask="url('#maskSk8wx8gnnzl8')" style=""></circle><circle cx="122.80133304221107" cy="147.7014482876" r="10" fill="#808080" stroke="#000000" style="fill-opacity: 0; stroke-width: 1;"></circle><polyline points="127.19102130055161,150.82084518357001,152.5307236814822,189.31817474929483,148.42006021082767,191.96734269209492,123.8287646113749,152.98769311457173,123.8287646113749,152.98769311457173,127.19102130055161,150.82084518357001" stroke="#000000" fill="#ffffff" style="stroke-width: 0;"></polyline><line x1="123.8287646113749" x2="148.42006021082767" y1="152.98769311457173" y2="191.96734269209492" stroke="#000000" fill="#000000" style="stroke-width: 1;"></line><line x1="127.19102130055161" x2="152.5307236814822" y1="150.82084518357001" y2="189.31817474929483" stroke="#808080" fill="#000000" style="stroke-width: 3;"></line><path d="M 127.19102130055161 150.82084518357001 A 1.999999999999999 1.999999999999999 0 1 0 123.8287646113749 152.98769311457173" fill="none" stroke="#000000" style="stroke-width: 1;"></path><path d="M 152.5307236814822 189.31817474929483 A 2.445181228361872 2.445181228361872 0 1 1 148.42006021082767 191.96734269209492" fill="none" stroke="#000000" style="stroke-width: 1;"></path><circle cx="234.25841366375533" cy="73.66441893610934" r="10.426091685804987" fill="#808080" style=""></circle><circle cx="232.17319532659434" cy="71.57920059894835" r="10.426091685804987" fill="#ffffff" mask="url('#maskSk8wx8gnnzlj')" style=""></circle><circle cx="234.25841366375533" cy="73.66441893610934" r="10.426091685804987" fill="#808080" stroke="#000000" style="fill-opacity: 0; stroke-width: 1;"></circle><polyline points="238.8158282602778,76.94374122421088,263.8148547603851,115.41371091350878,259.54514186036084,118.12977587860657,235.2970088625464,79.1821451423363,235.2970088625464,79.1821451423363,238.8158282602778,76.94374122421088" stroke="#000000" fill="#ffffff" style="stroke-width: 0;"></polyline><line x1="235.2970088625464" x2="259.54514186036084" y1="79.1821451423363" y2="118.12977587860657" stroke="#000000" fill="#000000" style="stroke-width: 1;"></line><line x1="238.8158282602778" x2="263.8148547603851" y1="76.94374122421088" y2="115.41371091350878" stroke="#808080" fill="#000000" style="stroke-width: 3;"></line><path d="M 238.8158282602778 76.94374122421088 A 2.0852183371610105 2.0852183371610105 0 1 0 235.2970088625464 79.1821451423363" fill="none" stroke="#000000" style="stroke-width: 1;"></path><path d="M 263.8148547603851 115.41371091350878 A 2.530190563142692 2.530190563142692 0 1 1 259.54514186036084 118.12977587860657" fill="none" stroke="#000000" style="stroke-width: 1;"></path><circle cx="150.47539194615493" cy="190.64275872069487" r="12.225906141809421" fill="#808080" style=""></circle><circle cx="148.03021071779304" cy="188.19757749233298" r="12.225906141809421" fill="#ffffff" mask="url('#maskSk8wx8gnnzlu')" style=""></circle><circle cx="150.47539194615493" cy="190.64275872069487" r="12.225906141809421" fill="#808080" stroke="#000000" style="fill-opacity: 0; stroke-width: 1;"></circle><polyline points="156.28980557051918,187.5541181311435,224.29358533188847,179.85188496019643,224.8931782523729,185.39283371831178,156.81592635659203,192.41609734506406,156.81592635659203,192.41609734506406,156.28980557051918,187.5541181311435" stroke="#000000" fill="#ffffff" style="stroke-width: 0;"></polyline><line x1="156.28980557051918" x2="224.29358533188847" y1="187.5541181311435" y2="179.85188496019643" stroke="#000000" fill="#000000" style="stroke-width: 1;"></line><line x1="156.81592635659203" x2="224.8931782523729" y1="192.41609734506406" y2="185.39283371831178" stroke="#808080" fill="#000000" style="stroke-width: 3;"></line><path d="M 156.28980557051918 187.5541181311435 A 2.4451812283618946 2.4451812283618946 0 1 0 156.81592635659203 192.41609734506406" fill="none" stroke="#000000" style="stroke-width: 1;"></path><path d="M 224.29358533188847 179.85188496019643 A 2.7866478433036295 2.7866478433036295 0 1 1 224.8931782523729 185.39283371831178" fill="none" stroke="#000000" style="stroke-width: 1;"></path><polyline points="149.63840042312256,197.1731914534461,116.01776432059135,258.09972721083165,111.29038605179342,255.46795453621218,145.36554792413062,194.79445723542344,145.36554792413062,194.79445723542344,149.63840042312256,197.1731914534461" stroke="#000000" fill="#ffffff" style="stroke-width: 0;"></polyline><line x1="145.36554792413062" x2="111.29038605179342" y1="194.79445723542344" y2="255.46795453621218" stroke="#000000" fill="#000000" style="stroke-width: 1;"></line><line x1="149.63840042312256" x2="116.01776432059135" y1="197.1731914534461" y2="258.09972721083165" stroke="#808080" fill="#000000" style="stroke-width: 3;"></line><path d="M 149.63840042312256 197.1731914534461 A 2.4451812283618937 2.4451812283618937 0 1 0 145.36554792413062 194.79445723542344" fill="none" stroke="#000000" style="stroke-width: 1;"></path><path d="M 116.01776432059135 258.09972721083165 A 2.7052880025598327 2.7052880025598327 0 1 1 111.29038605179342 255.46795453621218" fill="none" stroke="#000000" style="stroke-width: 1;"></path><circle cx="59.02229187284607" cy="262.2561221300695" r="12.253976517913458" fill="#808080" style=""></circle><circle cx="56.571496569263374" cy="259.8053268264868" r="12.253976517913458" fill="#ffffff" mask="url('#maskSk8wx8gnnzma')" style=""></circle><circle cx="59.02229187284607" cy="262.2561221300695" r="12.253976517913458" fill="#808080" stroke="#000000" style="fill-opacity: 0; stroke-width: 1;"></circle><polyline points="64.87450684867451,259.20686605322953,113.38444489394952,254.09202314523878,113.92370547843525,259.47565860180504,65.36303794281841,264.08405047154986,65.36303794281841,264.08405047154986,64.87450684867451,259.20686605322953" stroke="#000000" fill="#ffffff" style="stroke-width: 0;"></polyline><line x1="64.87450684867451" x2="113.38444489394952" y1="259.20686605322953" y2="254.09202314523878" stroke="#000000" fill="#000000" style="stroke-width: 1;"></line><line x1="65.36303794281841" x2="113.92370547843525" y1="264.08405047154986" y2="259.47565860180504" stroke="#808080" fill="#000000" style="stroke-width: 3;"></line><path d="M 64.87450684867451 259.20686605322953 A 2.450795303582696 2.450795303582696 0 1 0 65.36303794281841 264.08405047154986" fill="none" stroke="#000000" style="stroke-width: 1;"></path><path d="M 113.38444489394952 254.09202314523878 A 2.705288002559858 2.705288002559858 0 1 1 113.92370547843525 259.47565860180504" fill="none" stroke="#000000" style="stroke-width: 1;"></path><circle cx="261.679998310373" cy="116.77174339605767" r="12.65095281571337" fill="#808080" style=""></circle><circle cx="259.1498077472303" cy="114.241552832915" r="12.65095281571337" fill="#ffffff" mask="url('#maskSk8wx8gnnzml')" style=""></circle><circle cx="261.679998310373" cy="116.77174339605767" r="12.65095281571337" fill="#808080" stroke="#000000" style="fill-opacity: 0; stroke-width: 1;"></circle><polyline points="260.78055964680027,123.5248557276155,227.02143638748842,183.98982308083953,222.16532719677295,181.25489559766868,256.3713618080908,121.04162566127356,256.3713618080908,121.04162566127356,260.78055964680027,123.5248557276155" stroke="#000000" fill="#ffffff" style="stroke-width: 0;"></polyline><line x1="256.3713618080908" x2="222.16532719677295" y1="121.04162566127356" y2="181.25489559766868" stroke="#000000" fill="#000000" style="stroke-width: 1;"></line><line x1="260.78055964680027" x2="227.02143638748842" y1="123.5248557276155" y2="183.98982308083953" stroke="#808080" fill="#000000" style="stroke-width: 3;"></line><path d="M 260.78055964680027 123.5248557276155 A 2.5301905631426718 2.5301905631426718 0 1 0 256.3713618080908 121.04162566127356" fill="none" stroke="#000000" style="stroke-width: 1;"></path><path d="M 227.02143638748842 183.98982308083953 A 2.786647843303604 2.786647843303604 0 1 1 222.16532719677295 181.25489559766868" fill="none" stroke="#000000" style="stroke-width: 1;"></path><polyline points="267.71294628466575,113.606770282168,335.6554159531878,106.26155519175917,336.2446486919563,111.98223559348513,268.2314248530607,118.64052008896017,268.2314248530607,118.64052008896017,267.71294628466575,113.606770282168" stroke="#000000" fill="#ffffff" style="stroke-width: 0;"></polyline><line x1="267.71294628466575" x2="335.6554159531878" y1="113.606770282168" y2="106.26155519175917" stroke="#000000" fill="#000000" style="stroke-width: 1;"></line><line x1="268.2314248530607" x2="336.2446486919563" y1="118.64052008896017" y2="111.98223559348513" stroke="#808080" fill="#000000" style="stroke-width: 3;"></line><path d="M 267.71294628466575 113.606770282168 A 2.53019056314268 2.53019056314268 0 1 0 268.2314248530607 118.64052008896017" fill="none" stroke="#000000" style="stroke-width: 1;"></path><path d="M 335.6554159531878 106.26155519175917 A 2.875472981925238 2.875472981925238 0 1 1 336.2446486919563 111.98223559348513" fill="none" stroke="#000000" style="stroke-width: 1;"></path><circle cx="362.88749896692343" cy="60.40162342567683" r="13.417222531585285" fill="#808080" style=""></circle><circle cx="360.20405446060636" cy="57.71817891935977" r="13.417222531585285" fill="#ffffff" mask="url('#maskSk8wx8gnnzn1')" style=""></circle><circle cx="362.88749896692343" cy="60.40162342567683" r="13.417222531585285" fill="#808080" stroke="#000000" style="fill-opacity: 0; stroke-width: 1;"></circle><polyline points="361.9898217217439,67.57103868059757,338.4664790849362,110.51324026790245,333.43358556020786,107.73055051734185,357.29303251012396,64.97418119980598,357.29303251012396,64.97418119980598,361.9898217217439,67.57103868059757" stroke="#000000" fill="#ffffff" style="stroke-width: 0;"></polyline><line x1="357.29303251012396" x2="333.43358556020786" y1="64.97418119980598" y2="107.73055051734185" stroke="#000000" fill="#000000" style="stroke-width: 1;"></line><line x1="361.9898217217439" x2="338.4664790849362" y1="67.57103868059757" y2="110.51324026790245" stroke="#808080" fill="#000000" style="stroke-width: 3;"></line><path d="M 361.9898217217439 67.57103868059757 A 2.683444506317054 2.683444506317054 0 1 0 357.29303251012396 64.97418119980598" fill="none" stroke="#000000" style="stroke-width: 1;"></path><path d="M 338.4664790849362 110.51324026790245 A 2.8754729819252205 2.8754729819252205 0 1 1 333.43358556020786 107.73055051734185" fill="none" stroke="#000000" style="stroke-width: 1;"></path><circle cx="113.65407518619239" cy="256.7838408735219" r="13.526440012799233" fill="#808080" style=""></circle><circle cx="110.94878718363253" cy="254.07855287096206" r="13.526440012799233" fill="#ffffff" mask="url('#maskSk8wx8gnnznc')" style=""></circle><circle cx="113.65407518619239" cy="256.7838408735219" r="13.526440012799233" fill="#808080" stroke="#000000" style="fill-opacity: 0; stroke-width: 1;"></circle><polyline points="119.55318714005544,261.0570371231164,153.4810085681119,313.63769465140473,147.88639497365145,317.1717005306903,114.97881401513148,263.94657743623725,114.97881401513148,263.94657743623725,119.55318714005544,261.0570371231164" stroke="#000000" fill="#ffffff" style="stroke-width: 0;"></polyline><line x1="119.55318714005544" x2="153.4810085681119" y1="261.0570371231164" y2="313.63769465140473" stroke="#000000" fill="#000000" style="stroke-width: 1;"></line><line x1="114.97881401513148" x2="147.88639497365145" y1="263.94657743623725" y2="317.1717005306903" stroke="#808080" fill="#000000" style="stroke-width: 3;"></line><path d="M 119.55318714005544 261.0570371231164 A 2.705288002559856 2.705288002559856 0 1 0 114.97881401513148 263.94657743623725" fill="none" stroke="#000000" style="stroke-width: 1;"></path><path d="M 153.4810085681119 313.63769465140473 A 3.308659049605545 3.308659049605545 0 1 1 147.88639497365145 317.1717005306903" fill="none" stroke="#000000" style="stroke-width: 1;"></path><circle cx="224.59338179213069" cy="182.6223593392541" r="13.933239216518027" fill="#808080" style=""></circle><circle cx="221.8067339488271" cy="179.8357114959505" r="13.933239216518027" fill="#ffffff" mask="url('#maskSk8wx8gnnznn')" style=""></circle><circle cx="224.59338179213069" cy="182.6223593392541" r="13.933239216518027" fill="#808080" stroke="#000000" style="fill-opacity: 0; stroke-width: 1;"></circle><polyline points="230.6970125721592,186.98640405371984,265.0721839077378,239.54069058335418,259.355862737965,243.20123165310687,226.0035663470026,189.99193018767997,226.0035663470026,189.99193018767997,230.6970125721592,186.98640405371984" stroke="#000000" fill="#ffffff" style="stroke-width: 0;"></polyline><line x1="226.0035663470026" x2="259.355862737965" y1="189.99193018767997" y2="243.20123165310687" stroke="#000000" fill="#000000" style="stroke-width: 1;"></line><line x1="230.6970125721592" x2="265.0721839077378" y1="186.98640405371984" y2="239.54069058335418" stroke="#808080" fill="#000000" style="stroke-width: 3;"></line><path d="M 230.6970125721592 186.98640405371984 A 2.7866478433035873 2.7866478433035873 0 1 0 226.0035663470026 189.99193018767997" fill="none" stroke="#000000" style="stroke-width: 1;"></path><path d="M 265.0721839077378 239.54069058335418 A 3.393961131161433 3.393961131161433 0 1 1 259.355862737965 243.20123165310687" fill="none" stroke="#000000" style="stroke-width: 1;"></path><circle cx="335.95003232257204" cy="109.12189539262215" r="14.377364909626136" fill="#808080" style=""></circle><circle cx="333.07455934064683" cy="106.24642241069692" r="14.377364909626136" fill="#ffffff" mask="url('#maskSk8wx8gnnzny')" style=""></circle><circle cx="335.95003232257204" cy="109.12189539262215" r="14.377364909626136" fill="#808080" stroke="#000000" style="fill-opacity: 0; stroke-width: 1;"></circle><polyline points="342.2758487283653,113.5861475255237,376.6122415843073,165.37670770919445,370.7757781215986,169.16510150588286,337.45200135235234,116.7172616997531,337.45200135235234,116.7172616997531,342.2758487283653,113.5861475255237" stroke="#000000" fill="#ffffff" style="stroke-width: 0;"></polyline><line x1="337.45200135235234" x2="370.7757781215986" y1="116.7172616997531" y2="169.16510150588286" stroke="#000000" fill="#000000" style="stroke-width: 1;"></line><line x1="342.2758487283653" x2="376.6122415843073" y1="113.5861475255237" y2="165.37670770919445" stroke="#808080" fill="#000000" style="stroke-width: 3;"></line><path d="M 342.2758487283653 113.5861475255237 A 2.8754729819252076 2.8754729819252076 0 1 0 337.45200135235234 116.7172616997531" fill="none" stroke="#000000" style="stroke-width: 1;"></path><path d="M 376.6122415843073 165.37670770919445 A 3.479088720854965 3.479088720854965 0 1 1 370.7757781215986 169.16510150588286" fill="none" stroke="#000000" style="stroke-width: 1;"></path><circle cx="150.68370177088167" cy="315.4046975910475" r="16.543295248027817" fill="#808080" style=""></circle><circle cx="147.37504272127612" cy="312.09603854144194" r="16.543295248027817" fill="#ffffff" mask="url('#maskSk8wx8gnnzo9')" style=""></circle><circle cx="150.68370177088167" cy="315.4046975910475" r="16.543295248027817" fill="#808080" stroke="#000000" style="fill-opacity: 0; stroke-width: 1;"></circle><polyline points="149.59789506236265,324.2471182389316,117.42687778775323,383.30641968452557,111.1677577055597,379.8651534483486,143.79920681099955,321.0589975715712,143.79920681099955,321.0589975715712,149.59789506236265,324.2471182389316" stroke="#000000" fill="#ffffff" style="stroke-width: 0;"></polyline><line x1="143.79920681099955" x2="111.1677577055597" y1="321.0589975715712" y2="379.8651534483486" stroke="#000000" fill="#000000" style="stroke-width: 1;"></line><line x1="149.59789506236265" x2="117.42687778775323" y1="324.2471182389316" y2="383.30641968452557" stroke="#808080" fill="#000000" style="stroke-width: 3;"></line><path d="M 149.59789506236265 324.2471182389316 A 3.3086590496055592 3.3086590496055592 0 1 0 143.79920681099955 321.0589975715712" fill="none" stroke="#000000" style="stroke-width: 1;"></path><path d="M 117.42687778775323 383.30641968452557 A 3.571375698227848 3.571375698227848 0 1 1 111.1677577055597 379.8651534483486" fill="none" stroke="#000000" style="stroke-width: 1;"></path><polyline points="158.57423718053903,311.268657205445,224.89639319389227,304.11234419976853,225.64285513811427,311.3839837454448,159.2499794024284,317.85138242192653,159.2499794024284,317.85138242192653,158.57423718053903,311.268657205445" stroke="#000000" fill="#ffffff" style="stroke-width: 0;"></polyline><line x1="158.57423718053903" x2="224.89639319389227" y1="311.268657205445" y2="304.11234419976853" stroke="#000000" fill="#000000" style="stroke-width: 1;"></line><line x1="159.2499794024284" x2="225.64285513811427" y1="317.85138242192653" y2="311.3839837454448" stroke="#808080" fill="#000000" style="stroke-width: 3;"></line><path d="M 158.57423718053903 311.268657205445 A 3.3086590496055215 3.3086590496055215 0 1 0 159.2499794024284 317.85138242192653" fill="none" stroke="#000000" style="stroke-width: 1;"></path><path d="M 224.89639319389227 304.11234419976853 A 3.6549263712288047 3.6549263712288047 0 1 1 225.64285513811427 311.3839837454448" fill="none" stroke="#000000" style="stroke-width: 1;"></path><circle cx="59.665881846619385" cy="387.34652144062045" r="16.5954845833377" fill="#808080" style=""></circle><circle cx="56.346784929951845" cy="384.0274245239529" r="16.5954845833377" fill="#ffffff" mask="url('#maskSk8wx8gnnzop')" style=""></circle><circle cx="59.665881846619385" cy="387.34652144062045" r="16.5954845833377" fill="#808080" stroke="#000000" style="fill-opacity: 0; stroke-width: 1;"></circle><polyline points="67.56981356430303,383.17557491934065,113.92280237318045,378.03410209101946,114.67183312013248,385.1374710418547,68.26593344996259,389.7771682477513,68.26593344996259,389.7771682477513,67.56981356430303,383.17557491934065" stroke="#000000" fill="#ffffff" style="stroke-width: 0;"></polyline><line x1="67.56981356430303" x2="113.92280237318045" y1="383.17557491934065" y2="378.03410209101946" stroke="#000000" fill="#000000" style="stroke-width: 1;"></line><line x1="68.26593344996259" x2="114.67183312013248" y1="389.7771682477513" y2="385.1374710418547" stroke="#808080" fill="#000000" style="stroke-width: 3;"></line><path d="M 67.56981356430303 383.17557491934065 A 3.3190969166675055 3.3190969166675055 0 1 0 68.26593344996259 389.7771682477513" fill="none" stroke="#000000" style="stroke-width: 1;"></path><path d="M 113.92280237318045 378.03410209101946 A 3.5713756982278535 3.5713756982278535 0 1 1 114.67183312013248 385.1374710418547" fill="none" stroke="#000000" style="stroke-width: 1;"></path><circle cx="262.2140233228514" cy="241.37096111823053" r="16.96980565580703" fill="#808080" style=""></circle><circle cx="258.82006219169" cy="237.97699998706912" r="16.96980565580703" fill="#ffffff" mask="url('#maskSk8wx8gnnzp0')" style=""></circle><circle cx="262.2140233228514" cy="241.37096111823053" r="16.96980565580703" fill="#808080" stroke="#000000" style="fill-opacity: 0; stroke-width: 1;"></circle><polyline points="261.05313453017175,250.43544595576157,228.46321116834775,309.525659074586,222.07603716365878,305.9706688706274,255.12201086088953,247.13428545390497,255.12201086088953,247.13428545390497,261.05313453017175,250.43544595576157" stroke="#000000" fill="#ffffff" style="stroke-width: 0;"></polyline><line x1="255.12201086088953" x2="222.07603716365878" y1="247.13428545390497" y2="305.9706688706274" stroke="#000000" fill="#000000" style="stroke-width: 1;"></line><line x1="261.05313453017175" x2="228.46321116834775" y1="250.43544595576157" y2="309.525659074586" stroke="#808080" fill="#000000" style="stroke-width: 3;"></line><path d="M 261.05313453017175 250.43544595576157 A 3.3939611311614137 3.3939611311614137 0 1 0 255.12201086088953 247.13428545390497" fill="none" stroke="#000000" style="stroke-width: 1;"></path><path d="M 228.46321116834775 309.525659074586 A 3.654926371228843 3.654926371228843 0 1 1 222.07603716365878 305.9706688706274" fill="none" stroke="#000000" style="stroke-width: 1;"></path><polyline points="270.3065715130762,237.12558575818423,336.34048001499264,229.97654853684008,337.1068527361176,237.41769382619867,271.00198950201167,243.87779150593832,271.00198950201167,243.87779150593832,270.3065715130762,237.12558575818423" stroke="#000000" fill="#ffffff" style="stroke-width: 0;"></polyline><line x1="270.3065715130762" x2="336.34048001499264" y1="237.12558575818423" y2="229.97654853684008" stroke="#000000" fill="#000000" style="stroke-width: 1;"></line><line x1="271.00198950201167" x2="337.1068527361176" y1="243.87779150593832" y2="237.41769382619867" stroke="#808080" fill="#000000" style="stroke-width: 3;"></line><path d="M 270.3065715130762 237.12558575818423 A 3.3939611311614333 3.3939611311614333 0 1 0 271.00198950201167 243.87779150593832" fill="none" stroke="#000000" style="stroke-width: 1;"></path><path d="M 336.34048001499264 229.97654853684008 A 3.7402530116633823 3.7402530116633823 0 1 1 337.1068527361176 237.41769382619867" fill="none" stroke="#000000" style="stroke-width: 1;"></path><circle cx="373.69400985295295" cy="167.27090460753865" r="17.395443604274885" fill="#808080" style=""></circle><circle cx="370.21492113209797" cy="163.79181588668368" r="17.395443604274885" fill="#ffffff" mask="url('#maskSk8wx8gnnzpg')" style=""></circle><circle cx="373.69400985295295" cy="167.27090460753865" r="17.395443604274885" fill="#808080" stroke="#000000" style="fill-opacity: 0; stroke-width: 1;"></circle><polyline points="372.50414622868607,176.56276380958232,339.9918376785833,235.51606288628076,333.45549507252696,231.878179476758,366.424205709833,173.1788967026276,366.424205709833,173.1788967026276,372.50414622868607,176.56276380958232" stroke="#000000" fill="#ffffff" style="stroke-width: 0;"></polyline><line x1="366.424205709833" x2="333.45549507252696" y1="173.1788967026276" y2="231.878179476758" stroke="#000000" fill="#000000" style="stroke-width: 1;"></line><line x1="372.50414622868607" x2="339.9918376785833" y1="176.56276380958232" y2="235.51606288628076" stroke="#808080" fill="#000000" style="stroke-width: 3;"></line><path d="M 372.50414622868607 176.56276380958232 A 3.4790887208549717 3.4790887208549717 0 1 0 366.424205709833 173.1788967026276" fill="none" stroke="#000000" style="stroke-width: 1;"></path><path d="M 339.9918376785833 235.51606288628076 A 3.7402530116633947 3.7402530116633947 0 1 1 333.45549507252696 231.878179476758" fill="none" stroke="#000000" style="stroke-width: 1;"></path><polyline points="382.01116985707733,162.9605366022808,447.43213073382634,156.20370467377305,448.1781497099026,163.82035462433268,382.68944848025535,169.88557605485147,382.68944848025535,169.88557605485147,382.01116985707733,162.9605366022808" stroke="#000000" fill="#ffffff" style="stroke-width: 0;"></polyline><line x1="382.01116985707733" x2="447.43213073382634" y1="162.9605366022808" y2="156.20370467377305" stroke="#000000" fill="#000000" style="stroke-width: 1;"></line><line x1="382.68944848025535" x2="448.1781497099026" y1="169.88557605485147" y2="163.82035462433268" stroke="#808080" fill="#000000" style="stroke-width: 3;"></line><path d="M 382.01116985707733 162.9605366022808 A 3.479088720854952 3.479088720854952 0 1 0 382.68944848025535 169.88557605485147" fill="none" stroke="#000000" style="stroke-width: 1;"></path><path d="M 447.43213073382634 156.20370467377305 A 3.8265487316257296 3.8265487316257296 0 1 1 448.1781497099026 163.82035462433268" fill="none" stroke="#000000" style="stroke-width: 1;"></path><circle cx="114.29731774665646" cy="381.5857865664371" r="17.856878491139256" fill="#808080" style=""></circle><circle cx="110.7259420484286" cy="378.01441086820927" r="17.856878491139256" fill="#ffffff" mask="url('#maskSk8wx8gnnzpw')" style=""></circle><circle cx="114.29731774665646" cy="381.5857865664371" r="17.856878491139256" fill="#808080" stroke="#000000" style="fill-opacity: 0; stroke-width: 1;"></circle><polyline points="122.11922188325627,387.1794944080716,155.2775799619367,437.8493297333307,148.2438411921216,442.3525680090354,116.10372567892907,391.0308192356206,116.10372567892907,391.0308192356206,122.11922188325627,387.1794944080716" stroke="#000000" fill="#ffffff" style="stroke-width: 0;"></polyline><line x1="122.11922188325627" x2="155.2775799619367" y1="387.1794944080716" y2="437.8493297333307" stroke="#000000" fill="#000000" style="stroke-width: 1;"></line><line x1="116.10372567892907" x2="148.2438411921216" y1="391.0308192356206" y2="442.3525680090354" stroke="#808080" fill="#000000" style="stroke-width: 3;"></line><path d="M 122.11922188325627 387.1794944080716 A 3.5713756982278624 3.5713756982278624 0 1 0 116.10372567892907 391.0308192356206" fill="none" stroke="#000000" style="stroke-width: 1;"></path><path d="M 155.2775799619367 437.8493297333307 A 4.175902179462894 4.175902179462894 0 1 1 148.2438411921216 442.3525680090354" fill="none" stroke="#000000" style="stroke-width: 1;"></path><circle cx="474.9939093308552" cy="111.40719055309148" r="18.18498663725692" fill="#808080" style=""></circle><circle cx="471.3569120034038" cy="107.7701932256401" r="18.18498663725692" fill="#ffffff" mask="url('#maskSk8wx8gnnzq7')" style=""></circle><circle cx="474.9939093308552" cy="111.40719055309148" r="18.18498663725692" fill="#808080" stroke="#000000" style="fill-opacity: 0; stroke-width: 1;"></circle><polyline points="473.72914343100337,121.11808914836902,451.1447036405285,161.8801279784316,444.4655768032004,158.14393131967412,467.3808729238745,117.566968225636,467.3808729238745,117.566968225636,473.72914343100337,121.11808914836902" stroke="#000000" fill="#ffffff" style="stroke-width: 0;"></polyline><line x1="467.3808729238745" x2="444.4655768032004" y1="117.566968225636" y2="158.14393131967412" stroke="#000000" fill="#000000" style="stroke-width: 1;"></line><line x1="473.72914343100337" x2="451.1447036405285" y1="121.11808914836902" y2="161.8801279784316" stroke="#808080" fill="#000000" style="stroke-width: 3;"></line><path d="M 473.72914343100337 121.11808914836902 A 3.6369973274513936 3.6369973274513936 0 1 0 467.3808729238745 117.566968225636" fill="none" stroke="#000000" style="stroke-width: 1;"></path><path d="M 451.1447036405285 161.8801279784316 A 3.8265487316257705 3.8265487316257705 0 1 1 444.4655768032004 158.14393131967412" fill="none" stroke="#000000" style="stroke-width: 1;"></path><circle cx="225.26962416600327" cy="307.7481639726067" r="18.274631856144207" fill="#808080" style=""></circle><circle cx="221.61469779477443" cy="304.09323760137784" r="18.274631856144207" fill="#ffffff" mask="url('#maskSk8wx8gnnzqi')" style=""></circle><circle cx="225.26962416600327" cy="307.7481639726067" r="18.274631856144207" fill="#808080" stroke="#000000" style="fill-opacity: 0; stroke-width: 1;"></circle><polyline points="233.27538343363338,313.4715237985533,266.45621991277596,364.1557046397168,259.2790130532909,368.7523259685967,227.1197534108757,317.41387920355425,227.1197534108757,317.41387920355425,233.27538343363338,313.4715237985533" stroke="#000000" fill="#ffffff" style="stroke-width: 0;"></polyline><line x1="227.1197534108757" x2="259.2790130532909" y1="317.41387920355425" y2="368.7523259685967" stroke="#000000" fill="#000000" style="stroke-width: 1;"></line><line x1="233.27538343363338" x2="266.45621991277596" y1="313.4715237985533" y2="364.1557046397168" stroke="#808080" fill="#000000" style="stroke-width: 3;"></line><path d="M 233.27538343363338 313.4715237985533 A 3.6549263712288442 3.6549263712288442 0 1 0 227.1197534108757 317.41387920355425" fill="none" stroke="#000000" style="stroke-width: 1;"></path><path d="M 266.45621991277596 364.1557046397168 A 4.26149111066048 4.26149111066048 0 1 1 259.2790130532909 368.7523259685967" fill="none" stroke="#000000" style="stroke-width: 1;"></path><circle cx="336.7236663755551" cy="233.69712118151938" r="18.70126505831687" fill="#808080" style=""></circle><circle cx="332.98341336389177" cy="229.956868169856" r="18.70126505831687" fill="#ffffff" mask="url('#maskSk8wx8gnnzqt')" style=""></circle><circle cx="336.7236663755551" cy="233.69712118151938" r="18.70126505831687" fill="#808080" stroke="#000000" style="fill-opacity: 0; stroke-width: 1;"></circle><polyline points="344.917526417384,239.55241612725294,377.99757300756755,290.05612835979144,370.67749734045344,294.7463670539765,338.6190167880977,243.58810030900153,338.6190167880977,243.58810030900153,344.917526417384,239.55241612725294" stroke="#000000" fill="#ffffff" style="stroke-width: 0;"></polyline><line x1="338.6190167880977" x2="370.67749734045344" y1="243.58810030900153" y2="294.7463670539765" stroke="#000000" fill="#000000" style="stroke-width: 1;"></line><line x1="344.917526417384" x2="377.99757300756755" y1="239.55241612725294" y2="290.05612835979144" stroke="#808080" fill="#000000" style="stroke-width: 3;"></line><path d="M 344.917526417384 239.55241612725294 A 3.740253011663378 3.740253011663378 0 1 0 338.6190167880977 243.58810030900153" fill="none" stroke="#000000" style="stroke-width: 1;"></path><path d="M 377.99757300756755 290.05612835979144 A 4.346891037877148 4.346891037877148 0 1 1 370.67749734045344 294.7463670539765" fill="none" stroke="#000000" style="stroke-width: 1;"></path><circle cx="447.80514022186446" cy="160.01202964905286" r="19.132743658128675" fill="#808080" style=""></circle><circle cx="443.9785914902387" cy="156.18548091742713" r="19.132743658128675" fill="#ffffff" mask="url('#maskSk8wx8gnnzr4')" style=""></circle><circle cx="447.80514022186446" cy="160.01202964905286" r="19.132743658128675" fill="#808080" stroke="#000000" style="fill-opacity: 0; stroke-width: 1;"></circle><polyline points="456.18693466664024,166.00397983684212,489.007663886414,216.1272098338117,481.544608809715,220.90710057359624,449.74233606960604,170.1315759538491,449.74233606960604,170.1315759538491,456.18693466664024,166.00397983684212" stroke="#000000" fill="#ffffff" style="stroke-width: 0;"></polyline><line x1="449.74233606960604" x2="481.544608809715" y1="170.1315759538491" y2="220.90710057359624" stroke="#000000" fill="#000000" style="stroke-width: 1;"></line><line x1="456.18693466664024" x2="489.007663886414" y1="166.00397983684212" y2="216.1272098338117" stroke="#808080" fill="#000000" style="stroke-width: 3;"></line><path d="M 456.18693466664024 166.00397983684212 A 3.826548731625744 3.826548731625744 0 1 0 449.74233606960604 170.1315759538491" fill="none" stroke="#000000" style="stroke-width: 1;"></path><path d="M 489.007663886414 216.1272098338117 A 4.431268062364335 4.431268062364335 0 1 1 481.544608809715 220.90710057359624" fill="none" stroke="#000000" style="stroke-width: 1;"></path><circle cx="151.76071057702916" cy="440.10094887118305" r="20.879510897314542" fill="#808080" style=""></circle><circle cx="147.58480839756626" cy="435.9250466917201" r="20.879510897314542" fill="#ffffff" mask="url('#maskSk8wx8gnnzrf')" style=""></circle><circle cx="151.76071057702916" cy="440.10094887118305" r="20.879510897314542" fill="#808080" stroke="#000000" style="fill-opacity: 0; stroke-width: 1;"></circle><polyline points="161.74663517243536,434.93297414068434,225.4551581541733,428.3814332606144,226.3317271744012,437.3839406854633,162.5560178568052,443.24546689075726,162.5560178568052,443.24546689075726,161.74663517243536,434.93297414068434" stroke="#000000" fill="#ffffff" style="stroke-width: 0;"></polyline><line x1="161.74663517243536" x2="225.4551581541733" y1="434.93297414068434" y2="428.3814332606144" stroke="#000000" fill="#000000" style="stroke-width: 1;"></line><line x1="162.5560178568052" x2="226.3317271744012" y1="443.24546689075726" y2="437.3839406854633" stroke="#808080" fill="#000000" style="stroke-width: 3;"></line><path d="M 161.74663517243536 434.93297414068434 A 4.175902179462918 4.175902179462918 0 1 0 162.5560178568052 443.24546689075726" fill="none" stroke="#000000" style="stroke-width: 1;"></path><path d="M 225.4551581541733 428.3814332606144 A 4.522541132529439 4.522541132529439 0 1 1 226.3317271744012 437.3839406854633" fill="none" stroke="#000000" style="stroke-width: 1;"></path><polyline points="150.30452547682077,451.25021690967526,128.36735579366209,490.8227496442963,120.74828621820578,486.557161126124,143.01708133998707,447.170291174775,143.01708133998707,447.170291174775,150.30452547682077,451.25021690967526" stroke="#000000" fill="#ffffff" style="stroke-width: 0;"></polyline><line x1="143.01708133998707" x2="120.74828621820578" y1="447.170291174775" y2="486.557161126124" stroke="#000000" fill="#000000" style="stroke-width: 1;"></line><line x1="150.30452547682077" x2="128.36735579366209" y1="451.25021690967526" y2="490.8227496442963" stroke="#808080" fill="#000000" style="stroke-width: 3;"></line><path d="M 150.30452547682077 451.25021690967526 A 4.175902179462938 4.175902179462938 0 1 0 143.01708133998707 447.170291174775" fill="none" stroke="#000000" style="stroke-width: 1;"></path><path d="M 128.36735579366209 490.8227496442963 A 4.365932506407061 4.365932506407061 0 1 1 120.74828621820578 486.557161126124" fill="none" stroke="#000000" style="stroke-width: 1;"></path><circle cx="262.86761648303343" cy="366.45401530415677" r="21.307455553302376" fill="#808080" style=""></circle><circle cx="258.60612537237296" cy="362.1925241934963" r="21.307455553302376" fill="#ffffff" mask="url('#maskSk8wx8gnnzrv')" style=""></circle><circle cx="262.86761648303343" cy="366.45401530415677" r="21.307455553302376" fill="#808080" stroke="#000000" style="fill-opacity: 0; stroke-width: 1;"></circle><polyline points="261.4098454967834,377.83545307699,229.84510212095228,435.0821791494219,221.94178320762222,430.6831947966558,253.96272178758807,373.69038680431186,253.96272178758807,373.69038680431186,261.4098454967834,377.83545307699" stroke="#000000" fill="#ffffff" style="stroke-width: 0;"></polyline><line x1="253.96272178758807" x2="221.94178320762222" y1="373.69038680431186" y2="430.6831947966558" stroke="#000000" fill="#000000" style="stroke-width: 1;"></line><line x1="261.4098454967834" x2="229.84510212095228" y1="377.83545307699" y2="435.0821791494219" stroke="#808080" fill="#000000" style="stroke-width: 3;"></line><path d="M 261.4098454967834 377.83545307699 A 4.261491110660489 4.261491110660489 0 1 0 253.96272178758807 373.69038680431186" fill="none" stroke="#000000" style="stroke-width: 1;"></path><path d="M 229.84510212095228 435.0821791494219 A 4.5225411325294065 4.5225411325294065 0 1 1 221.94178320762222 430.6831947966558" fill="none" stroke="#000000" style="stroke-width: 1;"></path><polyline points="273.0297729528581,361.1255260334508,336.93468560168077,354.209084294162,337.87690371859986,363.3757216732144,273.90123963063473,369.6038378804212,273.90123963063473,369.6038378804212,273.0297729528581,361.1255260334508" stroke="#000000" fill="#ffffff" style="stroke-width: 0;"></polyline><line x1="273.0297729528581" x2="336.93468560168077" y1="361.1255260334508" y2="354.209084294162" stroke="#000000" fill="#000000" style="stroke-width: 1;"></line><line x1="273.90123963063473" x2="337.87690371859986" y1="369.6038378804212" y2="363.3757216732144" stroke="#808080" fill="#000000" style="stroke-width: 3;"></line><path d="M 273.0297729528581 361.1255260334508 A 4.26149111066051 4.26149111066051 0 1 0 273.90123963063473 369.6038378804212" fill="none" stroke="#000000" style="stroke-width: 1;"></path><path d="M 336.93468560168077 354.209084294162 A 4.60746719518684 4.60746719518684 0 1 1 337.87690371859986 363.3757216732144" fill="none" stroke="#000000" style="stroke-width: 1;"></path><circle cx="374.3375351740105" cy="292.40124770688396" r="21.734455189385532" fill="#808080" style=""></circle><circle cx="369.99064413613337" cy="288.05435666900684" r="21.734455189385532" fill="#ffffff" mask="url('#maskSk8wx8gnnzsb')" style=""></circle><circle cx="374.3375351740105" cy="292.40124770688396" r="21.734455189385532" fill="#808080" stroke="#000000" style="fill-opacity: 0; stroke-width: 1;"></circle><polyline points="384.70162373901195,286.96270327782634,448.4359598564864,280.04297170212567,449.3986868600691,289.38014959578993,385.5932851204306,295.610638682395,385.5932851204306,295.610638682395,384.70162373901195,286.96270327782634" stroke="#000000" fill="#ffffff" style="stroke-width: 0;"></polyline><line x1="384.70162373901195" x2="448.4359598564864" y1="286.96270327782634" y2="280.04297170212567" stroke="#000000" fill="#000000" style="stroke-width: 1;"></line><line x1="385.5932851204306" x2="449.3986868600691" y1="295.610638682395" y2="289.38014959578993" stroke="#808080" fill="#000000" style="stroke-width: 3;"></line><path d="M 384.70162373901195 286.96270327782634 A 4.346891037877121 4.346891037877121 0 1 0 385.5932851204306 295.610638682395" fill="none" stroke="#000000" style="stroke-width: 1;"></path><path d="M 448.4359598564864 280.04297170212567 A 4.693339277672132 4.693339277672132 0 1 1 449.3986868600691 289.38014959578993" fill="none" stroke="#000000" style="stroke-width: 1;"></path><polyline points="372.85342828349235,304.0111367686943,341.43221524163005,361.0322001297884,333.3793740786506,356.552605837588,365.25601703824884,299.78488675818244,365.25601703824884,299.78488675818244,372.85342828349235,304.0111367686943" stroke="#000000" fill="#ffffff" style="stroke-width: 0;"></polyline><line x1="365.25601703824884" x2="333.3793740786506" y1="299.78488675818244" y2="356.552605837588" stroke="#000000" fill="#000000" style="stroke-width: 1;"></line><line x1="372.85342828349235" x2="341.43221524163005" y1="304.0111367686943" y2="361.0322001297884" stroke="#808080" fill="#000000" style="stroke-width: 3;"></line><path d="M 372.85342828349235 304.0111367686943 A 4.346891037877075 4.346891037877075 0 1 0 365.25601703824884 299.78488675818244" fill="none" stroke="#000000" style="stroke-width: 1;"></path><path d="M 341.43221524163005 361.0322001297884 A 4.607467195186828 4.607467195186828 0 1 1 333.3793740786506 356.552605837588" fill="none" stroke="#000000" style="stroke-width: 1;"></path><circle cx="124.55782100593393" cy="488.68995538521017" r="21.829662532035215" fill="#808080" style=""></circle><circle cx="120.19188849952688" cy="484.32402287880313" r="21.829662532035215" fill="#ffffff" mask="url('#maskSk8wx8gnnzsr')" style=""></circle><circle cx="124.55782100593393" cy="488.68995538521017" r="21.829662532035215" fill="#808080" stroke="#000000" style="fill-opacity: 0; stroke-width: 1;"></circle><circle cx="485.2761363480645" cy="218.51715520370396" r="22.156340311821843" fill="#808080" style=""></circle><circle cx="480.8448682857001" cy="214.08588714133958" r="22.156340311821843" fill="#ffffff" mask="url('#maskSk8wx8gnnzsx')" style=""></circle><circle cx="485.2761363480645" cy="218.51715520370396" r="22.156340311821843" fill="#808080" stroke="#000000" style="fill-opacity: 0; stroke-width: 1;"></circle><polyline points="483.8267163444207,230.36034617138168,453.0309637401571,286.97107307067876,444.8036829763984,282.45204822723684,476.05883843668266,226.09365900537145,476.05883843668266,226.09365900537145,483.8267163444207,230.36034617138168" stroke="#000000" fill="#ffffff" style="stroke-width: 0;"></polyline><line x1="476.05883843668266" x2="444.8036829763984" y1="226.09365900537145" y2="282.45204822723684" stroke="#000000" fill="#000000" style="stroke-width: 1;"></line><line x1="483.8267163444207" x2="453.0309637401571" y1="230.36034617138168" y2="286.97107307067876" stroke="#808080" fill="#000000" style="stroke-width: 3;"></line><path d="M 483.8267163444207 230.36034617138168 A 4.431268062364335 4.431268062364335 0 1 0 476.05883843668266 226.09365900537145" fill="none" stroke="#000000" style="stroke-width: 1;"></path><path d="M 453.0309637401571 286.97107307067876 A 4.693339277672112 4.693339277672112 0 1 1 444.8036829763984 282.45204822723684" fill="none" stroke="#000000" style="stroke-width: 1;"></path><polyline points="495.8260651735134,212.94391625119107,539.4039553486692,208.07494653468916,540.390494132282,217.39106565009638,496.75935305098466,221.75717446253873,496.75935305098466,221.75717446253873,495.8260651735134,212.94391625119107" stroke="#000000" fill="#ffffff" style="stroke-width: 0;"></polyline><line x1="495.8260651735134" x2="539.4039553486692" y1="212.94391625119107" y2="208.07494653468916" stroke="#000000" fill="#000000" style="stroke-width: 1;"></line><line x1="496.75935305098466" x2="540.390494132282" y1="221.75717446253873" y2="217.39106565009638" stroke="#808080" fill="#000000" style="stroke-width: 3;"></line><path d="M 495.8260651735134 212.94391625119107 A 4.431268062364364 4.431268062364364 0 1 0 496.75935305098466 221.75717446253873" fill="none" stroke="#000000" style="stroke-width: 1;"></path><path d="M 539.4039553486692 208.07494653468916 A 4.684104347258608 4.684104347258608 0 1 1 540.390494132282 217.39106565009638" fill="none" stroke="#000000" style="stroke-width: 1;"></path><circle cx="225.89344266428725" cy="432.88268697303886" r="22.612705662647144" fill="#808080" style=""></circle><circle cx="221.37090153175782" cy="428.3601458405094" r="22.612705662647144" fill="#ffffff" mask="url('#maskSk8wx8gnnztd')" style=""></circle><circle cx="225.89344266428725" cy="432.88268697303886" r="22.612705662647144" fill="#808080" stroke="#000000" style="fill-opacity: 0; stroke-width: 1;"></circle><polyline points="235.84369137984564,439.90262594288237,267.96122902796935,488.260154721768,259.36313570121536,493.8428561970145,228.25745796186848,444.82833154813824,228.25745796186848,444.82833154813824,235.84369137984564,439.90262594288237" stroke="#000000" fill="#ffffff" style="stroke-width: 0;"></polyline><line x1="235.84369137984564" x2="267.96122902796935" y1="439.90262594288237" y2="488.260154721768" stroke="#000000" fill="#000000" style="stroke-width: 1;"></line><line x1="228.25745796186848" x2="259.36313570121536" y1="444.82833154813824" y2="493.8428561970145" stroke="#808080" fill="#000000" style="stroke-width: 3;"></line><path d="M 235.84369137984564 439.90262594288237 A 4.522541132529434 4.522541132529434 0 1 0 228.25745796186848 444.82833154813824" fill="none" stroke="#000000" style="stroke-width: 1;"></path><path d="M 267.96122902796935 488.260154721768 A 5.125762494919439 5.125762494919439 0 1 1 259.36313570121536 493.8428561970145" fill="none" stroke="#000000" style="stroke-width: 1;"></path><circle cx="337.4057946601403" cy="358.7924029836882" r="23.03733597593417" fill="#808080" style=""></circle><circle cx="332.7983274649535" cy="354.1849357885014" r="23.03733597593417" fill="#ffffff" mask="url('#maskSk8wx8gnnzto')" style=""></circle><circle cx="337.4057946601403" cy="358.7924029836882" r="23.03733597593417" fill="#808080" stroke="#000000" style="fill-opacity: 0; stroke-width: 1;"></circle><polyline points="347.49877899537137,366.00628774715096,379.430956779592,414.72886113670245,370.64981220512215,420.3540541907428,339.7394145142988,370.9769294229068,339.7394145142988,370.9769294229068,347.49877899537137,366.00628774715096" stroke="#000000" fill="#ffffff" style="stroke-width: 0;"></polyline><line x1="339.7394145142988" x2="370.64981220512215" y1="370.9769294229068" y2="420.3540541907428" stroke="#000000" fill="#000000" style="stroke-width: 1;"></line><line x1="347.49877899537137" x2="379.430956779592" y1="366.00628774715096" y2="414.72886113670245" stroke="#808080" fill="#000000" style="stroke-width: 3;"></line><path d="M 347.49877899537137 366.00628774715096 A 4.607467195186828 4.607467195186828 0 1 0 339.7394145142988 370.9769294229068" fill="none" stroke="#000000" style="stroke-width: 1;"></path><path d="M 379.430956779592 414.72886113670245 A 5.214194495148916 5.214194495148916 0 1 1 370.64981220512215 420.3540541907428" fill="none" stroke="#000000" style="stroke-width: 1;"></path><circle cx="539.8972247404756" cy="212.73300609239277" r="23.420521736292987" fill="#808080" style=""></circle><circle cx="535.213120393217" cy="208.04890174513417" r="23.420521736292987" fill="#ffffff" mask="url('#maskSk8wx8gnnztz')" style=""></circle><circle cx="539.8972247404756" cy="212.73300609239277" r="23.420521736292987" fill="#808080" stroke="#000000" style="fill-opacity: 0; stroke-width: 1;"></circle><circle cx="448.91732335827777" cy="284.7115606489578" r="23.4666963883607" fill="#808080" style=""></circle><circle cx="444.22398408060565" cy="280.0182213712857" r="23.4666963883607" fill="#ffffff" mask="url('#maskSk8wx8gnnzu5')" style=""></circle><circle cx="448.91732335827777" cy="284.7115606489578" r="23.4666963883607" fill="#808080" stroke="#000000" style="fill-opacity: 0; stroke-width: 1;"></circle><polyline points="459.1527859318347,292.1233215278941,490.4380369810345,340.503707542534,481.48375950789176,346.16203299254903,451.21765082262164,297.1376375430544,451.21765082262164,297.1376375430544,459.1527859318347,292.1233215278941" stroke="#000000" fill="#ffffff" style="stroke-width: 0;"></polyline><line x1="451.21765082262164" x2="481.48375950789176" y1="297.1376375430544" y2="346.16203299254903" stroke="#000000" fill="#000000" style="stroke-width: 1;"></line><line x1="459.1527859318347" x2="490.4380369810345" y1="292.1233215278941" y2="340.503707542534" stroke="#808080" fill="#000000" style="stroke-width: 3;"></line><path d="M 459.1527859318347 292.1233215278941 A 4.6933392776721075 4.6933392776721075 0 1 0 451.21765082262164 297.1376375430544" fill="none" stroke="#000000" style="stroke-width: 1;"></path><path d="M 490.4380369810345 340.503707542534 A 5.296124336822136 5.296124336822136 0 1 1 481.48375950789176 346.16203299254903" fill="none" stroke="#000000" style="stroke-width: 1;"></path><circle cx="263.66218236459235" cy="491.05150545939125" r="25.628812474597183" fill="#808080" style=""></circle><circle cx="258.5364198696729" cy="485.9257429644718" r="25.628812474597183" fill="#ffffff" mask="url('#maskSk8wx8gnnzug')" style=""></circle><circle cx="263.66218236459235" cy="491.05150545939125" r="25.628812474597183" fill="#808080" stroke="#000000" style="fill-opacity: 0; stroke-width: 1;"></circle><polyline points="275.8850951069039,484.6419147967453,337.385800090666,477.97194169732177,338.50483063345797,488.85496296511803,276.9336644625738,494.83967273286254,276.9336644625738,494.83967273286254,275.8850951069039,484.6419147967453" stroke="#000000" fill="#ffffff" style="stroke-width: 0;"></polyline><line x1="275.8850951069039" x2="337.385800090666" y1="484.6419147967453" y2="477.97194169732177" stroke="#000000" fill="#000000" style="stroke-width: 1;"></line><line x1="276.9336644625738" x2="338.50483063345797" y1="494.83967273286254" y2="488.85496296511803" stroke="#808080" fill="#000000" style="stroke-width: 3;"></line><path d="M 275.8850951069039 484.6419147967453 A 5.125762494919459 5.125762494919459 0 1 0 276.9336644625738 494.83967273286254" fill="none" stroke="#000000" style="stroke-width: 1;"></path><path d="M 337.385800090666 477.97194169732177 A 5.47020066521803 5.47020066521803 0 1 1 338.50483063345797 488.85496296511803" fill="none" stroke="#000000" style="stroke-width: 1;"></path><polyline points="261.9468679413844,504.74603519934124,241.37833157549048,542.339945757122,232.07098509125254,537.1933559749673,252.9755548581659,499.7852584274875,252.9755548581659,499.7852584274875,261.9468679413844,504.74603519934124" stroke="#000000" fill="#ffffff" style="stroke-width: 0;"></polyline><line x1="252.9755548581659" x2="232.07098509125254" y1="499.7852584274875" y2="537.1933559749673" stroke="#000000" fill="#000000" style="stroke-width: 1;"></line><line x1="261.9468679413844" x2="241.37833157549048" y1="504.74603519934124" y2="542.339945757122" stroke="#808080" fill="#000000" style="stroke-width: 3;"></line><path d="M 261.9468679413844 504.74603519934124 A 5.125762494919442 5.125762494919442 0 1 0 252.9755548581659 499.7852584274875" fill="none" stroke="#000000" style="stroke-width: 1;"></path><path d="M 241.37833157549048 542.339945757122 A 5.317755282152318 5.317755282152318 0 1 1 232.07098509125254 537.1933559749673" fill="none" stroke="#000000" style="stroke-width: 1;"></path><circle cx="375.0403844923571" cy="417.5414576637226" r="26.07097247574459" fill="#808080" style=""></circle><circle cx="369.82618999720813" cy="412.32726316857367" r="26.07097247574459" fill="#ffffff" mask="url('#maskSk8wx8gnnzuw')" style=""></circle><circle cx="375.0403844923571" cy="417.5414576637226" r="26.07097247574459" fill="#808080" stroke="#000000" style="fill-opacity: 0; stroke-width: 1;"></circle><polyline points="387.4383523157029,410.9534291617896,448.5651047949139,403.98694225700626,449.761998655224,415.03351819559896,388.56169119335436,421.3211389715268,388.56169119335436,421.3211389715268,387.4383523157029,410.9534291617896" stroke="#000000" fill="#ffffff" style="stroke-width: 0;"></polyline><line x1="387.4383523157029" x2="448.5651047949139" y1="410.9534291617896" y2="403.98694225700626" stroke="#000000" fill="#000000" style="stroke-width: 1;"></line><line x1="388.56169119335436" x2="449.761998655224" y1="421.3211389715268" y2="415.03351819559896" stroke="#808080" fill="#000000" style="stroke-width: 3;"></line><path d="M 387.4383523157029 410.9534291617896 A 5.214194495148907 5.214194495148907 0 1 0 388.56169119335436 421.3211389715268" fill="none" stroke="#000000" style="stroke-width: 1;"></path><path d="M 448.5651047949139 403.98694225700626 A 5.555614162267369 5.555614162267369 0 1 1 449.761998655224 415.03351819559896" fill="none" stroke="#000000" style="stroke-width: 1;"></path><polyline points="373.18740466151553,431.45828889204085,342.7117070677723,486.09759193740416,333.1789236563517,480.72931272503564,364.1007568711834,426.34124591123475,364.1007568711834,426.34124591123475,373.18740466151553,431.45828889204085" stroke="#000000" fill="#ffffff" style="stroke-width: 0;"></polyline><line x1="364.1007568711834" x2="333.1789236563517" y1="426.34124591123475" y2="480.72931272503564" stroke="#000000" fill="#000000" style="stroke-width: 1;"></line><line x1="373.18740466151553" x2="342.7117070677723" y1="431.45828889204085" y2="486.09759193740416" stroke="#808080" fill="#000000" style="stroke-width: 3;"></line><path d="M 373.18740466151553 431.45828889204085 A 5.2141944951489005 5.2141944951489005 0 1 0 364.1007568711834 426.34124591123475" fill="none" stroke="#000000" style="stroke-width: 1;"></path><path d="M 342.7117070677723 486.09759193740416 A 5.470200665217957 5.470200665217957 0 1 1 333.1789236563517 480.72931272503564" fill="none" stroke="#000000" style="stroke-width: 1;"></path><circle cx="485.9608982444631" cy="343.3328702675415" r="26.48062168411071" fill="#808080" style=""></circle><circle cx="480.664773907641" cy="338.0367459307194" r="26.48062168411071" fill="#ffffff" mask="url('#maskSk8wx8gnnzvc')" style=""></circle><circle cx="485.9608982444631" cy="343.3328702675415" r="26.48062168411071" fill="#808080" stroke="#000000" style="fill-opacity: 0; stroke-width: 1;"></circle><polyline points="484.15523070990645,357.4783405297836,454.0190306354334,412.2100771239974,444.3080728147045,406.8103833286078,474.8978491592723,352.33085388188465,474.8978491592723,352.33085388188465,484.15523070990645,357.4783405297836" stroke="#000000" fill="#ffffff" style="stroke-width: 0;"></polyline><line x1="474.8978491592723" x2="444.3080728147045" y1="352.33085388188465" y2="406.8103833286078" stroke="#000000" fill="#000000" style="stroke-width: 1;"></line><line x1="484.15523070990645" x2="454.0190306354334" y1="357.4783405297836" y2="412.2100771239974" stroke="#808080" fill="#000000" style="stroke-width: 3;"></line><path d="M 484.15523070990645 357.4783405297836 A 5.296124336822151 5.296124336822151 0 1 0 474.8978491592723 352.33085388188465" fill="none" stroke="#000000" style="stroke-width: 1;"></path><path d="M 454.0190306354334 412.2100771239974 A 5.555614162267415 5.555614162267415 0 1 1 444.3080728147045 406.8103833286078" fill="none" stroke="#000000" style="stroke-width: 1;"></path><polyline points="498.606089743149,336.74091333906495,540.0338749084692,332.3267226498471,541.1426025186504,343.37292129451924,499.6639382459092,347.28020593911776,499.6639382459092,347.28020593911776,498.606089743149,336.74091333906495" stroke="#000000" fill="#ffffff" style="stroke-width: 0;"></polyline><line x1="498.606089743149" x2="540.0338749084692" y1="336.74091333906495" y2="332.3267226498471" stroke="#000000" fill="#000000" style="stroke-width: 1;"></line><line x1="499.6639382459092" x2="541.1426025186504" y1="347.28020593911776" y2="343.37292129451924" stroke="#808080" fill="#000000" style="stroke-width: 3;"></line><path d="M 498.606089743149 336.74091333906495 A 5.296124336822164 5.296124336822164 0 1 0 499.6639382459092 347.28020593911776" fill="none" stroke="#000000" style="stroke-width: 1;"></path><path d="M 540.0338749084692 332.3267226498471 A 5.550850867460197 5.550850867460197 0 1 1 541.1426025186504 343.37292129451924" fill="none" stroke="#000000" style="stroke-width: 1;"></path><circle cx="236.7246583333715" cy="539.7666508660446" r="26.58877641076149" fill="#808080" style=""></circle><circle cx="231.40690305121922" cy="534.4488955838923" r="26.58877641076149" fill="#ffffff" mask="url('#maskSk8wx8gnnzvs')" style=""></circle><circle cx="236.7246583333715" cy="539.7666508660446" r="26.58877641076149" fill="#808080" stroke="#000000" style="fill-opacity: 0; stroke-width: 1;"></circle><circle cx="337.945315362062" cy="483.4134523312199" r="27.35100332608994" fill="#808080" style=""></circle><circle cx="332.475114696844" cy="477.9432516660019" r="27.35100332608994" fill="#ffffff" mask="url('#maskSk8wx8gnnzvy')" style=""></circle><circle cx="337.945315362062" cy="483.4134523312199" r="27.35100332608994" fill="#808080" stroke="#000000" style="fill-opacity: 0; stroke-width: 1;"></circle><polyline points="349.900769437514,492.0163331802993,370.37045038532995,523.3684479926053,360.3897771500483,529.7172015814274,340.6696918656104,497.8882654118994,340.6696918656104,497.8882654118994,349.900769437514,492.0163331802993" stroke="#000000" fill="#ffffff" style="stroke-width: 0;"></polyline><line x1="340.6696918656104" x2="360.3897771500483" y1="497.8882654118994" y2="529.7172015814274" stroke="#000000" fill="#000000" style="stroke-width: 1;"></line><line x1="349.900769437514" x2="370.37045038532995" y1="492.0163331802993" y2="523.3684479926053" stroke="#808080" fill="#000000" style="stroke-width: 3;"></line><path d="M 349.900769437514 492.0163331802993 A 5.470200665218002 5.470200665218002 0 1 0 340.6696918656104 497.8882654118994" fill="none" stroke="#000000" style="stroke-width: 1;"></path><path d="M 370.37045038532995 523.3684479926053 A 5.914400019466234 5.914400019466234 0 1 1 360.3897771500483 529.7172015814274" fill="none" stroke="#000000" style="stroke-width: 1;"></path><circle cx="540.5882387135598" cy="337.8498219721832" r="27.754254337301088" fill="#808080" style=""></circle><circle cx="535.0373878460996" cy="332.29897110472297" r="27.754254337301088" fill="#ffffff" mask="url('#maskSk8wx8gnnzw9')" style=""></circle><circle cx="540.5882387135598" cy="337.8498219721832" r="27.754254337301088" fill="#808080" stroke="#000000" style="fill-opacity: 0; stroke-width: 1;"></circle><circle cx="449.16355172506894" cy="409.5102302263026" r="27.778070811336935" fill="#808080" style=""></circle><circle cx="443.60793756280157" cy="403.95461606403524" r="27.778070811336935" fill="#ffffff" mask="url('#maskSk8wx8gnnzwf')" style=""></circle><circle cx="449.16355172506894" cy="409.5102302263026" r="27.778070811336935" fill="#808080" stroke="#000000" style="fill-opacity: 0; stroke-width: 1;"></circle><polyline points="461.35965588038835,418.1719388713967,481.9037794761072,449.21051846532845,471.81880839435945,455.7138528624137,452.02162118575256,424.19360831779795,452.02162118575256,424.19360831779795,461.35965588038835,418.1719388713967" stroke="#000000" fill="#ffffff" style="stroke-width: 0;"></polyline><line x1="452.02162118575256" x2="471.81880839435945" y1="424.19360831779795" y2="455.7138528624137" stroke="#000000" fill="#000000" style="stroke-width: 1;"></line><line x1="461.35965588038835" x2="481.9037794761072" y1="418.1719388713967" y2="449.21051846532845" stroke="#808080" fill="#000000" style="stroke-width: 3;"></line><path d="M 461.35965588038835 418.1719388713967 A 5.555614162267384 5.555614162267384 0 1 0 452.02162118575256 424.19360831779795" fill="none" stroke="#000000" style="stroke-width: 1;"></path><path d="M 481.9037794761072 449.21051846532845 A 6.000000000000024 6.000000000000024 0 1 1 471.81880839435945 455.7138528624137" fill="none" stroke="#000000" style="stroke-width: 1;"></path><circle cx="365.3801137676891" cy="526.5428247870163" r="29.572000097331404" fill="#808080" style=""></circle><circle cx="359.46571374822287" cy="520.6284247675501" r="29.572000097331404" fill="#ffffff" mask="url('#maskSk8wx8gnnzwq')" style=""></circle><circle cx="365.3801137676891" cy="526.5428247870163" r="29.572000097331404" fill="#808080" stroke="#000000" style="fill-opacity: 0; stroke-width: 1;"></circle><circle cx="476.86129393523333" cy="452.4621856638711" r="30" fill="#808080" style=""></circle><circle cx="470.86129393523333" cy="446.4621856638711" r="30" fill="#ffffff" mask="url('#maskSk8wx8gnnzww')" style=""></circle><circle cx="476.86129393523333" cy="452.4621856638711" r="30" fill="#808080" stroke="#000000" style="fill-opacity: 0; stroke-width: 1;"></circle></svg>